<svg fill="none" height="32" viewBox="0 0 32 32" width="32" xmlns="http://www.w3.org/2000/svg" xmlns:xlink="http://www.w3.org/1999/xlink"><linearGradient id="a" gradientUnits="userSpaceOnUse" x1="10.1733" x2="20.8705" y1="6.91977" y2="6.91977"><stop offset="0" stop-color="#ed358c"/><stop offset=".155" stop-color="#e9388c"/><stop offset=".297" stop-color="#de418c"/><stop offset=".433" stop-color="#cc508c"/><stop offset=".566" stop-color="#b2658d"/><stop offset=".697" stop-color="#90808d"/><stop offset=".826" stop-color="#67a18e"/><stop offset=".951" stop-color="#37c78f"/><stop offset="1" stop-color="#22d88f"/></linearGradient><linearGradient id="b"><stop offset=".091" stop-color="#22d88f"/><stop offset=".903" stop-color="#029de0"/></linearGradient><linearGradient id="c" gradientUnits="userSpaceOnUse" x1="8.13714" x2="3.43086" xlink:href="#b" y1="4.10606" y2="35.6869"/><linearGradient id="d" gradientUnits="userSpaceOnUse" x1="29.1822" x2="-3.00937" xlink:href="#b" y1="2.96786" y2="36.9669"/><linearGradient id="e" gradientUnits="userSpaceOnUse" x1="18.3379" x2="30.5715" xlink:href="#b" y1="22.5672" y2="24.3066"/><path d="m12.2972 12.9829-2.1029.8685 1.8743-13.8514 7.4057 4.02286z" fill="url(#a)"/><path d="m11.1086 19.2 1.0971-19.2-9.23427 5.80572-2.97143 17.73718z" fill="url(#c)"/><path d="m31.36 9.60009-4.1143-8.36571-7.7714 2.78857-5.7143 6.35425-13.76 13.1657 10.3771 7.5429 13.0286-11.7486z" fill="url(#d)"/><path d="m13.4401 13.6685-1.7829 10.9714 7.3143 5.6228 8 1.7372 5.0286-11.4286z" fill="url(#e)"/><path d="m6.12598 6.12549h19.74852v19.74861h-19.74852z" fill="#000"/><g fill="#fff"><path d="m8 22.1714h7.4057v1.2343h-7.4057z"/><path d="m7.86328 12.8457c0-2.3315 1.73714-4.25146 4.25142-4.25146 1.5543 0 2.4686.50286 3.2457 1.28l-1.1428 1.32576c-.64-.5943-1.28-.9143-2.1029-.9143-1.3714 0-2.37713 1.1428-2.37713 2.56v-.0457c0 1.4171.96003 2.56 2.37713 2.56.9143 0 1.5086-.3658 2.1486-.96l1.1428 1.1428c-.8228.9143-1.7828 1.4629-3.3371 1.4629-2.42286.0457-4.20572-1.8286-4.20572-4.16z"/><path d="m16.6406 8.73145h1.7829v6.67425h3.5657v1.5086h-5.3486z"/></g></svg>